<svg xmlns="http://www.w3.org/2000/svg" width="512" height="512" viewBox="0 0 512 512" version="1.1">
	<path d="M 84.655 1.597 C 41.885 9.324, 8.920 42.327, 1.468 84.881 C -0.731 97.438, -0.731 414.562, 1.468 427.119 C 8.946 469.822, 42.178 503.054, 84.881 510.532 C 92.017 511.782, 117.292 512, 255.059 512 C 364.394 512, 419.392 511.653, 424.678 510.930 C 456.620 506.563, 486.432 484.937, 501.010 455.559 C 506.029 445.445, 511 428.900, 511 422.313 C 511 420.280, 511.408 419.134, 512 419.500 C 512.665 419.911, 512.960 364.790, 512.882 254.809 C 512.817 163.889, 512.458 90.850, 512.085 92.500 C 511.523 94.988, 511.293 94.391, 510.740 89 C 508.510 67.276, 497.441 45.412, 480.337 28.946 C 463.617 12.849, 444.856 3.925, 421.602 1.009 C 416.458 0.364, 355.604 0.032, 253.026 0.090 C 119.145 0.165, 91.198 0.415, 84.655 1.597 M 0.488 256 C 0.488 347.025, 0.606 384.262, 0.750 338.750 C 0.894 293.237, 0.894 218.762, 0.750 173.250 C 0.606 127.737, 0.488 164.975, 0.488 256 M 214.923 109.923 L 212 112.846 212 128.458 L 212 144.069 207.078 143.416 C 196.666 142.035, 186.754 146.823, 181.335 155.853 C 175.334 165.852, 176.212 177.215, 183.657 185.913 C 196.032 200.370, 219.360 197.064, 227.098 179.757 C 229.314 174.801, 229.469 173.119, 229.814 150.373 L 230.179 126.247 239.050 128.169 C 247.056 129.905, 248.203 129.946, 250.819 128.593 C 254.853 126.508, 256.637 121.952, 254.984 117.962 C 254.292 116.291, 252.781 114.418, 251.626 113.800 C 249.260 112.534, 223.762 107.031, 220.173 107.012 C 218.893 107.006, 216.531 108.315, 214.923 109.923 M 293.589 110.077 C 291.048 113.096, 291 113.442, 291 128.585 L 291 144.017 285.663 143.390 C 265.028 140.965, 249.589 162.553, 258.903 180.810 C 261.523 185.945, 268.842 192.337, 273.807 193.824 C 286.750 197.702, 299.640 192.384, 305.422 180.780 C 307.979 175.650, 308 175.406, 308 151.470 C 308 138.195, 308.227 127.106, 308.504 126.829 C 308.782 126.552, 312.915 127.172, 317.689 128.207 C 328.059 130.456, 331.417 129.639, 333.636 124.328 C 335.485 119.903, 333.539 114.842, 329.373 113.239 C 325.641 111.803, 302.057 107, 298.736 107 C 297.107 107, 295.238 108.117, 293.589 110.077 M 170.994 213.875 C 165.858 215.559, 162.101 218.064, 158.630 222.119 C 154.010 227.517, 152.687 231.736, 153.180 239.493 C 153.977 252.004, 162.996 261.023, 175.507 261.820 C 183.427 262.324, 187.654 260.937, 193.276 255.988 C 209.835 241.412, 200.970 214.841, 179.072 213.416 C 176.008 213.216, 172.372 213.423, 170.994 213.875 M 247.707 214.472 C 241.912 216.692, 238.267 219.688, 235.391 224.597 C 227.704 237.713, 231.802 252.589, 244.936 259.250 C 262.572 268.194, 283.465 253.265, 280.373 233.929 C 279.385 227.755, 274.179 219.991, 268.803 216.675 C 263.095 213.154, 253.705 212.173, 247.707 214.472 M 327.994 213.934 C 317.837 217.024, 311.380 224.922, 310.277 235.604 C 309.568 242.477, 311.896 248.847, 317.235 254.639 C 322.397 260.239, 328.031 262.358, 336.351 261.829 C 349.077 261.018, 358.018 252.077, 358.829 239.351 C 359.380 230.685, 357.242 225.302, 351.030 219.717 C 344.329 213.692, 335.815 211.555, 327.994 213.934 M 142.352 272.250 C 137.280 277.774, 134.456 282.442, 131.828 289.649 C 129.941 294.823, 129.642 298.208, 129.239 318.918 C 128.710 346.137, 129.233 349.364, 134.531 351.578 C 136.404 352.360, 139.975 353, 142.468 353 L 147 353 147 376.364 L 147 399.727 149.636 402.364 L 152.273 405 177.213 405 L 202.154 405 205.077 402.077 L 208 399.154 208 384.103 L 208 369.051 205.120 367.562 C 200.017 364.923, 195.966 360.862, 193.208 355.620 C 190.548 350.563, 190.511 350.220, 190.174 327.639 C 189.747 298.984, 190.789 290.635, 196.537 276.634 C 197.232 274.941, 197.084 274.885, 194.948 276.028 C 188.167 279.657, 176.618 280.900, 168.042 278.924 C 162.636 277.678, 154.769 273.825, 150.783 270.471 C 149.168 269.112, 147.488 268, 147.051 268 C 146.613 268, 144.499 269.913, 142.352 272.250 M 220.448 272.612 C 215.398 278.112, 211.623 285.321, 209.532 293.460 C 207.702 300.579, 207.295 344.815, 209.030 348.055 C 210.617 351.022, 215.387 353, 220.950 353 L 226 353 226 376.545 L 226 400.091 228.455 402.545 L 230.909 405 256 405 L 281.091 405 283.545 402.545 L 286 400.091 286 376.662 L 286 353.233 292.635 352.811 C 298.359 352.446, 299.594 352.011, 301.635 349.638 C 303.978 346.914, 304 346.669, 304 323.154 C 304 298.140, 303.261 292.374, 298.891 283.297 C 296.478 278.285, 289.611 269.448, 287.500 268.638 C 286.647 268.311, 283.586 269.753, 280.403 271.983 C 272.456 277.550, 266.172 279.481, 256 279.481 C 245.814 279.481, 239.544 277.550, 231.553 271.952 C 228.450 269.778, 225.635 268, 225.297 268 C 224.959 268, 222.777 270.075, 220.448 272.612 M 361.217 270.471 C 356.462 274.472, 348.237 278.139, 341.387 279.312 C 334.189 280.545, 323.189 279.184, 317.789 276.391 C 314.860 274.876, 314.746 274.889, 315.481 276.649 C 315.905 277.667, 317.409 281.875, 318.823 286 C 321.341 293.349, 321.394 294.074, 321.446 322 L 321.500 350.500 318.799 355.620 C 316.033 360.864, 311.979 364.925, 306.880 367.562 L 304 369.051 304 384.103 L 304 399.154 306.923 402.077 L 309.846 405 334.787 405 L 359.727 405 362.364 402.364 L 365 399.727 365 376.364 L 365 353 369.351 353 C 371.744 353, 375.132 352.501, 376.881 351.892 C 382.459 349.947, 383.001 347.502, 382.992 324.300 C 382.984 300.624, 382.088 293.338, 378.117 284.641 C 375.515 278.942, 366.880 268, 364.984 268 C 364.527 268, 362.832 269.112, 361.217 270.471" stroke="none" fill="black" fill-rule="evenodd"/>
</svg>