<svg xmlns="http://www.w3.org/2000/svg" width="512" height="512" viewBox="0 0 512 512" version="1.1">
	<path d="M 87.585 1.107 C 63.727 4.586, 39.384 17.962, 24.482 35.779 C 14.443 47.782, 7.325 61.523, 2.760 77.712 L 0.564 85.500 0.231 251 C -0.010 371.006, 0.212 418.693, 1.037 424.476 C 6.392 462.002, 33.246 494.312, 69.300 506.609 C 85.600 512.168, 79.802 512, 255.059 512 C 364.394 512, 419.392 511.653, 424.678 510.930 C 457.929 506.384, 488.186 483.687, 502.608 452.472 C 506.474 444.104, 511 427.840, 511 422.313 C 511 420.280, 511.408 419.134, 512 419.500 C 512.665 419.911, 512.967 364.952, 512.900 255.309 C 512.845 164.664, 512.479 91.625, 512.086 93 C 511.542 94.907, 511.218 93.958, 510.722 89 C 509.456 76.329, 504.786 62.766, 497.122 49.500 C 490.751 38.472, 473.528 21.249, 462.500 14.878 C 448.973 7.063, 436.707 2.903, 421.602 1.009 C 411.621 -0.242, 96.202 -0.150, 87.585 1.107 M 203.299 56.908 C 197.456 60.564, 197 62.639, 197 85.567 L 197 106.233 194.750 105.570 C 181.265 101.594, 166.215 106.784, 157.208 118.516 C 152.598 124.522, 150.729 130.371, 150.663 139 C 150.558 152.720, 156.946 163.440, 169.179 170.073 C 175.116 173.292, 176.078 173.500, 185 173.500 C 193.186 173.500, 195.281 173.134, 200.148 170.852 C 207.029 167.626, 213.001 161.834, 216.716 154.784 L 219.500 149.500 219.799 115.750 C 220.090 82.951, 220.154 82, 222.067 82 C 223.149 82, 228.365 82.938, 233.658 84.085 C 244.753 86.489, 248.569 86.104, 252.307 82.201 C 255.917 78.434, 256.639 74.149, 254.445 69.525 C 252.117 64.619, 249.725 63.651, 229.500 59.426 C 205.999 54.518, 206.969 54.611, 203.299 56.908 M 309.190 56.974 C 303.646 60.441, 303 63.478, 303 86.085 L 303 106.233 300.750 105.580 C 286.843 101.542, 270.844 107.303, 262.587 119.322 C 257.375 126.910, 255.315 136.158, 256.909 144.810 C 259.119 156.801, 265.164 164.909, 276.214 170.700 C 280.902 173.157, 282.574 173.472, 291 173.485 C 299.205 173.498, 301.270 173.139, 306.148 170.852 C 313.029 167.626, 319.001 161.834, 322.716 154.784 L 325.500 149.500 325.773 116.500 C 325.922 98.350, 326.223 82.998, 326.440 82.383 C 326.714 81.608, 329.990 81.975, 337.167 83.586 C 351.149 86.725, 353.181 86.658, 357.434 82.924 C 363.686 77.435, 362.818 68.284, 355.697 64.607 C 353.939 63.699, 344.850 61.363, 335.500 59.416 C 311.915 54.504, 312.982 54.603, 309.190 56.974 M 0.488 256.500 C 0.488 347.250, 0.606 384.227, 0.750 338.671 C 0.894 293.115, 0.894 218.865, 0.750 173.671 C 0.606 128.477, 0.488 165.750, 0.488 256.500 M 141.929 199.367 C 131.722 202.120, 124.736 208.088, 120.118 218 C 118.017 222.510, 117.566 224.940, 117.610 231.500 C 117.674 241.101, 119.849 246.711, 126.161 253.559 C 132.424 260.354, 138.759 263.249, 148.500 263.768 C 159.436 264.350, 166.498 261.716, 173.658 254.383 C 180.833 247.033, 183.337 240.193, 182.768 229.500 C 182.252 219.827, 179.357 213.427, 172.734 207.322 C 167.370 202.378, 165.126 201.120, 158.546 199.368 C 152.426 197.738, 147.974 197.738, 141.929 199.367 M 246.870 199.565 C 240.665 201.475, 233.255 206.592, 229.475 211.577 C 217.360 227.551, 223.430 252.035, 241.764 261.147 C 245.736 263.120, 248.033 263.500, 256 263.500 C 264.058 263.500, 266.255 263.128, 270.474 261.052 C 276.825 257.927, 282.876 251.868, 286.004 245.500 C 289.364 238.660, 289.558 224.813, 286.389 217.949 C 279.394 202.795, 262.263 194.825, 246.870 199.565 M 352.811 199.470 C 343.088 202.148, 334.650 210.011, 330.935 219.853 C 328.099 227.368, 328.566 238.407, 332.022 245.545 C 335.049 251.798, 341.179 257.929, 347.526 261.052 C 351.745 263.128, 353.942 263.500, 362 263.500 C 369.887 263.500, 372.279 263.112, 376.086 261.217 C 382.429 258.059, 388.816 251.511, 391.766 245.139 C 403.583 219.618, 380.008 191.980, 352.811 199.470 M 102.666 278.080 C 95.837 285.626, 90.549 295.534, 87.972 305.609 C 86.212 312.492, 86 316.744, 86 345.210 C 86 380.761, 86.194 381.930, 92.534 384.579 C 94.405 385.360, 98.852 386, 102.415 386 L 108.895 386 109.197 417.296 C 109.534 452.084, 109.543 452.132, 116.326 455.351 C 119.321 456.772, 124.045 457, 150.451 457 C 183.679 457, 184.601 456.865, 188.912 451.385 C 190.878 448.885, 190.998 447.528, 190.974 428.115 L 190.948 407.500 186.766 405.568 C 180.940 402.877, 174.331 395.940, 171.170 389.196 L 168.500 383.500 168.500 345 C 168.500 303.381, 168.627 302.153, 174.426 287.797 C 176.463 282.755, 176.575 281.957, 175.164 282.541 C 166.470 286.138, 161.450 287.319, 152.999 287.754 C 138.376 288.507, 126.106 284.685, 115.021 275.922 C 112.292 273.765, 109.633 272, 109.113 272 C 108.593 272, 105.692 274.736, 102.666 278.080 M 209.351 277.250 C 203.230 283.756, 197.899 292.483, 194.845 301 C 192.598 307.265, 192.502 308.772, 192.199 342.707 C 191.978 367.377, 192.219 378.542, 193.006 380.011 C 195.173 384.060, 199.933 385.992, 207.750 385.996 L 215 386 215.004 416.750 C 215.007 445.828, 215.117 447.680, 217.026 450.810 C 220.618 456.702, 222.535 457, 256.718 456.996 C 285.484 456.993, 287.710 456.865, 290.701 455.040 C 296.840 451.298, 297 450.317, 297 416.550 L 297 386 304.250 385.996 C 309.664 385.993, 312.307 385.501, 314.686 384.050 C 320.497 380.507, 320.503 380.465, 320.469 345 C 320.435 308.585, 320.026 305.553, 313.354 292.239 C 309.913 285.374, 298.988 272, 296.820 272 C 296.269 272, 293.946 273.608, 291.659 275.573 C 286.500 280.006, 275.233 285.447, 268.201 286.903 C 255.881 289.453, 242.868 287.884, 231.500 282.476 C 227.650 280.645, 222.628 277.538, 220.341 275.573 C 218.054 273.608, 215.756 272, 215.236 272 C 214.716 272, 212.067 274.363, 209.351 277.250 M 397.500 275.507 C 381.832 288.952, 358.789 291.622, 336.828 282.537 C 335.454 281.969, 335.661 283.087, 337.988 288.806 C 343.580 302.548, 344.124 308.104, 343.797 348.157 L 343.500 384.500 340.070 390.826 C 336.397 397.602, 330.942 402.948, 324.836 405.758 L 321.052 407.500 321.041 427.500 C 321.028 449.520, 321.340 450.965, 326.912 454.720 C 330.254 456.972, 330.677 457, 361.398 456.998 C 406.137 456.996, 402.996 460.073, 402.998 416.250 L 403 386 410.050 386 C 417.665 386, 421.847 384.484, 424.439 380.783 C 426.686 377.575, 426.722 315.687, 424.482 306.188 C 422.867 299.335, 418.369 289.556, 414.277 284 C 410.516 278.894, 403.748 271.994, 402.542 272.038 C 401.969 272.058, 399.700 273.620, 397.500 275.507" stroke="none" fill="black" fill-rule="evenodd"/>
</svg>